<svg xmlns="http://www.w3.org/2000/svg" width="23.501" height="18.225" viewBox="0 0 23.501 18.225">
  <path id="Path_79" data-name="Path 79" d="M1163.463,3108.459a14.768,14.768,0,0,1-1.28-2.11,12.724,12.724,0,0,0,2-.98l-.152-.118c-.082-.065-.169-.125-.246-.2a.14.14,0,0,0-.18-.024,14.3,14.3,0,0,1-2.189.808,11.269,11.269,0,0,1-2.4.44c-.607.033-1.216.065-1.823.053a11.563,11.563,0,0,1-2.118-.263,14.8,14.8,0,0,1-3.006-.973.347.347,0,0,0-.464.068,2.543,2.543,0,0,1-.249.206,13.921,13.921,0,0,0,1.993.989c-.139.249-.264.5-.408.73-.262.428-.538.849-.8,1.275a.124.124,0,0,1-.173.059,19.584,19.584,0,0,1-2.98-1.225,19.219,19.219,0,0,1-2.794-1.75.21.21,0,0,1-.077-.131c-.031-.37-.069-.74-.077-1.111-.012-.625-.025-1.251,0-1.875.027-.589.094-1.177.163-1.764a18.455,18.455,0,0,1,.553-2.693,19.942,19.942,0,0,1,1.011-2.794,23.062,23.062,0,0,1,1.775-3.223.449.449,0,0,1,.185-.16,17.347,17.347,0,0,1,2.407-.917c.728-.2,1.466-.361,2.2-.539a.146.146,0,0,1,.188.09c.17.36.347.716.517,1.076.035.074.063.106.156.092a17.673,17.673,0,0,1,3.021-.182c.5.013,1,.068,1.505.11.219.019.436.049.654.079.073.01.093-.034.117-.084.172-.359.346-.716.513-1.078a.161.161,0,0,1,.208-.1,18.9,18.9,0,0,1,3.366.943q.6.233,1.2.492a.56.56,0,0,1,.232.2,21.816,21.816,0,0,1,2.373,4.714,20.026,20.026,0,0,1,.837,3.174,19.71,19.71,0,0,1,.274,2.362,22.416,22.416,0,0,1-.005,2.552c-.011.2-.036.39-.046.586a.278.278,0,0,1-.13.223,21.051,21.051,0,0,1-1.853,1.217,19.706,19.706,0,0,1-3.933,1.742Zm-7.481-8.056a2.7,2.7,0,0,0-.483-1.7,1.959,1.959,0,0,0-3.1-.2,2.438,2.438,0,0,0-.628,1.442,2.485,2.485,0,0,0,.824,2.216,1.9,1.9,0,0,0,2.521.03A2.414,2.414,0,0,0,1155.982,3100.4Zm3.572-.248a2.719,2.719,0,0,0,.479,1.613,1.95,1.95,0,0,0,3.164.147,2.46,2.46,0,0,0,.575-1.422,2.521,2.521,0,0,0-.574-1.926,1.948,1.948,0,0,0-3.016-.041A2.516,2.516,0,0,0,1159.554,3100.155Z" transform="translate(-1146.02 -3090.234)" fill="#fbf9f6"/>
</svg>
