<svg xmlns="http://www.w3.org/2000/svg" width="18.227" height="18.224" viewBox="0 0 18.227 18.224">
  <path id="Path_76" data-name="Path 76" d="M1073.915,3090.237c1.35,0,2.7-.006,4.049,0a5.04,5.04,0,0,1,5.013,5.024q.015,4.1,0,8.2a5.035,5.035,0,0,1-5,4.987q-4.1.018-8.2,0a5.035,5.035,0,0,1-5.013-5.022q-.015-4.1,0-8.2a5.041,5.041,0,0,1,4.995-4.988C1071.147,3090.23,1072.531,3090.237,1073.915,3090.237Zm-.049,4.708a4.4,4.4,0,1,0,4.407,4.4A4.449,4.449,0,0,0,1073.866,3094.945Zm4.77-1.456a1.13,1.13,0,0,0-1.116,1.078,1.1,1.1,0,1,0,2.208.031A1.145,1.145,0,0,0,1078.636,3093.489Z" transform="translate(-1064.758 -3090.234)" fill="#fbf9f6"/>
</svg>
