<svg xmlns="http://www.w3.org/2000/svg" width="21.768" height="17.846" viewBox="0 0 21.768 17.846">
  <path id="Path_78" data-name="Path 78" d="M1104.967,3106.29a9.35,9.35,0,0,0,6.511-1.894,4.647,4.647,0,0,1-4.183-3.128,4.926,4.926,0,0,0,1.937-.094,4.649,4.649,0,0,1-3.529-4.458,4.909,4.909,0,0,0,1.965.512,4.632,4.632,0,0,1-1.327-6,12.95,12.95,0,0,0,9.282,4.724c-.019-.225-.036-.437-.056-.649a4.46,4.46,0,0,1,3.38-4.734,4.278,4.278,0,0,1,4.022.958.825.825,0,0,0,.924.185c.737-.279,1.479-.545,2.214-.815a4.593,4.593,0,0,1-1.685,2.27l.027.069,2.238-.59.048.049c-.4.443-.782.9-1.19,1.325a6.853,6.853,0,0,1-.728.642.611.611,0,0,0-.252.537,12.448,12.448,0,0,1-.65,4.219,12.735,12.735,0,0,1-5.636,7.136,12.113,12.113,0,0,1-4.6,1.579,12.993,12.993,0,0,1-6.1-.555A12.2,12.2,0,0,1,1104.967,3106.29Z" transform="translate(-1104.967 -3090.424)" fill="#fbf9f6"/>
</svg>
