<svg xmlns="http://www.w3.org/2000/svg" width="35.716" height="31.656" viewBox="0 0 35.716 31.656">
  <g id="Group_13" data-name="Group 13" transform="translate(-4298.579 -1112.796)">
    <g id="Group_12" data-name="Group 12">
      <path id="Path_13" data-name="Path 13" d="M4316.473,1121.426c-.2,0-.4.005-.593,0a.9.9,0,0,0-.879.754,5.694,5.694,0,0,0-.294,1.746c.088,2.927.232,5.849.355,8.773.052,1.244.564,2.028,1.342,2.042.869.015,1.42-.717,1.477-2q.2-4.44.382-8.883c.062-1.479-.492-2.431-1.406-2.433Z" fill="#ed1c24"/>
      <path id="Path_14" data-name="Path 14" d="M4316.473,1143.947q-7.4,0-14.794,0a2.5,2.5,0,0,1-1.812-.569,2.255,2.255,0,0,1-.373-2.907c.83-1.456,1.68-2.9,2.518-4.353q4.054-7.024,8.1-14.051c1.437-2.49,2.866-4.984,4.313-7.467a2.248,2.248,0,0,1,4.1.04q7.379,12.78,14.769,25.554a2.458,2.458,0,0,1,.172,2.706,2.3,2.3,0,0,1-2.152,1.051q-6.009-.011-12.02,0h-2.825Z" fill="none" stroke="#ed1c24" stroke-miterlimit="10" stroke-width="1"/>
    </g>
    <path id="Path_15" data-name="Path 15" d="M4316.474,1139.346a1.635,1.635,0,0,0,1.635-1.623,1.637,1.637,0,1,0-3.274.007A1.628,1.628,0,0,0,4316.474,1139.346Z" fill="#ed1c24"/>
  </g>
</svg>
