<svg xmlns="http://www.w3.org/2000/svg" width="199.589" height="5.959" viewBox="0 0 199.589 5.959">
  <path id="Path_98" data-name="Path 98" d="M1190.66,343.711c-1.817.105-3.065.271-4.3.235-14.807-.437-29.615-.86-44.416-1.372q-68.437-2.367-136.922-.793c-3.619.081-7.244.076-10.866.089-1.337.005-3,.125-3.083-1.16-.077-1.248,1.493-1.312,2.89-1.349,18.679-.488,37.359-1.37,56.038-1.369q41.558,0,83.11,1.09c16.717.443,33.378,1.873,50.058,2.9,2.162.133,4.289.525,6.424.824C1189.779,342.835,1189.9,343.058,1190.66,343.711Z" transform="translate(-991.071 -337.992)" fill="#333"/>
</svg>
