<svg xmlns="http://www.w3.org/2000/svg" width="171.826" height="7.326" viewBox="0 0 171.826 7.326">
  <path id="Path_97" data-name="Path 97" d="M695.109,560.481c22.331.059,39.438.713,56.493,1.872,11.691.795,23.368,1.673,35.04,2.568,3.453.264,6.893.649,10.289,1.119a8.726,8.726,0,0,1,2.492,1.171,11.884,11.884,0,0,1-2.807.587c-4.418-.157-8.831-.4-13.237-.674-18.282-1.119-36.544-2.379-54.846-3.357q-27.945-1.491-55.976-.3A420.345,420.345,0,0,0,630.289,567c-1.212.174-2.273.123-2.619-.715-.377-.913.769-1.205,1.877-1.328,9-1,17.971-2.167,27.029-2.9C671.066,560.877,685.654,560.409,695.109,560.481Z" transform="translate(-627.597 -560.474)" fill="#333"/>
</svg>
