<svg xmlns="http://www.w3.org/2000/svg" width="163.143" height="99.292" viewBox="0 0 163.143 99.292">
  <path id="Path_99" data-name="Path 99" d="M419.276,350.818c-10.4-5.176-22.5-7.342-36.961-6.622-22.135,1.093-43.763,5.961-66.112,14.858-.608.243-1.243.434-1.857.62-.28.085-.563.169-.841.26l-3.626,1.166,3.229-1.848c14.555-8.331,31.106-13.471,50.584-15.707l-.1-.7c-.393.008-.792.007-1.19.005-.764,0-1.5-.007-2.209.061a7.948,7.948,0,0,0-1.021.159c-2.577.586-5.172,1.134-7.767,1.682a192.746,192.746,0,0,0-20.264,5.049c-18.351,6.036-33.472,15.04-44.942,26.76-10.878,11.117-11.727,23.785-2.389,35.673,9.231,11.756,22.9,20.289,40.62,25.361,30.177,8.637,59.012,4.944,85.709-10.974,16.959-10.112,26.982-22.988,29.788-38.269C442.8,372.708,435.078,358.678,419.276,350.818ZM437.338,391.8c-5.183,16.354-17.813,29-38.615,38.667a102.925,102.925,0,0,1-33.771,9.253,105.933,105.933,0,0,1-26.978-.937c-20.921-3.366-37.839-11.766-50.287-24.967-7.673-8.137-10.11-16.023-7.452-24.108a33.225,33.225,0,0,1,7.433-12.268,118.656,118.656,0,0,1,11.369-10c1.659-1.34,3.372-2.722,5.013-4.111l.372-.315,1.177,1.308c.346-.023.7-.028,1.055-.033a6.482,6.482,0,0,0,2.4-.3,230.47,230.47,0,0,1,64.5-17.287c18.568-2.109,33.007-.244,45.392,5.881C434.882,360.455,442.273,376.218,437.338,391.8Z" transform="translate(-277.37 -342.845)" fill="#333"/>
</svg>
